<?xml version="1.0" encoding="utf-8"?>
<!-- Generator: Adobe Illustrator 18.0.0, SVG Export Plug-In . SVG Version: 6.00 Build 0)  -->
<!DOCTYPE svg PUBLIC "-//W3C//DTD SVG 1.1//EN" "http://www.w3.org/Graphics/SVG/1.1/DTD/svg11.dtd">
<svg version="1.1" id="Calque_1" xmlns="http://www.w3.org/2000/svg" xmlns:xlink="http://www.w3.org/1999/xlink" x="0px" y="0px"
	 viewBox="203.8 22.9 434.3 430.7" enable-background="new 203.8 22.9 434.3 430.7" xml:space="preserve">
<g display="none">
	<path display="inline" d="M526.7,197.6v-48.6C526.7,91,479,43.3,420.9,43.3S315.2,91,315.2,149.1v48.6
		c-27.1,2.4-48.1,25.2-48.1,52.9v129.1c0,29,23.8,52.9,52.9,52.9h201.9c29,0,52.9-23.8,52.9-52.9V250.5
		C574.8,222.9,553.8,200,526.7,197.6z M420.9,67.1c45.2,0,81.9,36.7,81.9,81.9v48.1H339v-48.1C339,104.3,375.7,67.1,420.9,67.1z
		 M551,379.6c0,16.2-13.3,29-29,29H320c-16.2,0-29-13.3-29-29V250.5c0-16.2,13.3-29,29-29h201.9c16.2,0,29,13.3,29,29V379.6
		L551,379.6z"/>
</g>
<g display="none">
	<g display="inline">
		<path d="M420.9,22.9c-118.6,0-215.3,96.7-215.3,215.3s96.7,215.3,215.3,215.3s215.3-96.7,215.3-215.3S539.5,22.9,420.9,22.9z
			 M420.9,429.6c-105.2,0-191.4-85.7-191.4-191.4c0-105.2,85.7-191.4,191.4-191.4s191.4,85.7,191.4,191.4
			C612.4,343.4,526.2,429.6,420.9,429.6z"/>
		<path d="M502.9,156.2c-15.7-52.9-46.2-88.1-81.9-88.1s-66.2,35.2-81.9,88.1c-52.9,15.7-88.1,46.2-88.1,81.9s35.2,66.2,88.1,81.9
			c15.7,52.9,46.2,88.1,81.9,88.1s66.2-35.2,81.9-88.1c52.9-15.7,88.1-46.2,88.1-81.9S555.7,171.9,502.9,156.2z M420.9,91.9
			c20,0,41.4,21.4,54.8,58.1c-17.1-2.9-35.2-4.8-54.8-4.8s-37.6,1.9-54.8,4.8C379.5,113.8,400.9,91.9,420.9,91.9z M490,238.1
			c0,22.9-2.4,43.8-6.7,62.4c-18.6,4.3-39.5,6.7-62.4,6.7c-22.9,0-43.8-2.4-62.4-6.7c-4.3-18.6-6.7-39.5-6.7-62.4s2.4-43.8,6.7-62.4
			c18.6-4.3,39.5-6.7,62.4-6.7c22.9,0,43.8,2.4,62.4,6.7C487.6,194.3,490,215.3,490,238.1z M274.7,238.1c0-20,21.4-41.4,58.1-54.8
			c-2.9,17.1-4.8,35.2-4.8,54.8c0,19,1.9,37.6,4.8,54.8C296.7,279.5,274.7,258.1,274.7,238.1z M420.9,384.3
			c-20,0-41.4-21.4-54.8-58.1c17.1,2.9,35.2,4.8,54.8,4.8s37.6-1.9,54.8-4.8C462.4,362.4,440.9,384.3,420.9,384.3z M509,292.9
			c2.9-17.1,4.8-35.2,4.8-54.8c0-19-1.9-37.6-4.8-54.8c36.2,13.3,58.1,34.3,58.1,54.8C567.1,258.1,545.2,279.5,509,292.9z"/>
	</g>
</g>
<g display="none">
	<g display="inline">
		<circle cx="313.8" cy="238.1" r="22.4"/>
		<circle cx="420.9" cy="238.1" r="22.4"/>
		<circle cx="528.1" cy="238.1" r="22.4"/>
	</g>
</g>
<g display="none">
	<g display="inline">
		<path d="M558.1,35.2H283.8c-36.2,0-65.7,29.5-65.7,65.7v274.3c0,36.2,29.5,65.7,65.7,65.7h274.3c36.2,0,65.7-29.5,65.7-65.7V101
			C623.8,64.8,594.3,35.2,558.1,35.2z M283.8,59.1h274.3c22.9,0,41.4,18.6,41.4,41.4V211H241.9V101
			C241.9,78.1,260.9,59.1,283.8,59.1z M558.1,417.2H283.8c-22.9,0-41.4-18.6-41.4-41.4V235.3H600v140
			C600,398.1,581,417.2,558.1,417.2z"/>
		<circle cx="321.9" cy="136.7" r="42.9"/>
		<path d="M410,119.5h144.8c6.7,0,11.9-5.2,11.9-11.9c0-6.7-5.2-11.9-11.9-11.9H410c-6.7,0-11.9,5.2-11.9,11.9
			C398.1,114.3,403.8,119.5,410,119.5z"/>
		<path d="M410,180.5h144.8c6.7,0,11.9-5.2,11.9-11.9s-5.2-11.9-11.9-11.9H410c-6.7,0-11.9,5.2-11.9,11.9
			C398.1,174.8,403.8,180.5,410,180.5z"/>
	</g>
</g>
<g display="none">
	<path display="inline" d="M633.3,160c0-11.4-3.3-22.9-9-32.9l-28.6-82.9c-1.4-4.8-6.2-8.1-11.4-8.1H257.1c-5.2,0-9.5,3.3-11.4,8.1
		l-28.6,82.9c-5.7,10-8.6,21-8.6,32.9c0,25.7,15.2,48.1,36.7,59.1v190.5c0,17.1,13.8,31,31,31h86.2H480h86.2c17.1,0,31-13.8,31-31
		V219.1C618.6,208.1,633.3,185.7,633.3,160z M265.7,60h310.5l21,60H244.7L265.7,60z M385.7,416.2V288.6c0-0.5,0.5-0.5,0.5-0.5h68.6
		c0.5,0,0.5,0.5,0.5,0.5v127.6L385.7,416.2L385.7,416.2z M572.9,409.1c0,3.8-3.3,7.1-7.1,7.1H480V288.6c0-13.3-11-24.3-24.3-24.3
		h-69.1c-13.3,0-24.3,11-24.3,24.3v127.6h-86.2c-3.8,0-7.1-3.3-7.1-7.1V225.7c1.9,0,3.3,0.5,5.2,0.5c19,0,36.7-8.1,49.1-21.9
		c12.4,13.8,30,21.9,49.1,21.9c19,0,36.7-8.1,49.1-21.9c12.4,13.8,30,21.9,49.1,21.9s36.7-8.1,49.1-21.9
		c12.4,13.8,30,21.9,49.1,21.9c1.9,0,3.3,0,5.2-0.5v183.3H572.9z M567.6,201.9c-16.2,0-31.4-9.5-38.1-24.3c-1.9-4.3-6.2-6.7-11-6.7
		c-4.8,0-9,2.9-11,6.7c-7.1,14.8-21.9,24.3-38.1,24.3c-16.2,0-31.4-9.5-38.1-24.3c-1.9-4.3-6.2-6.7-11-6.7s-9,2.9-11,6.7
		c-7.1,14.8-21.9,24.3-38.1,24.3c-16.2,0-31.4-9.5-38.1-24.3c-1.9-4.3-6.2-6.7-11-6.7s-9,2.9-11,6.7c-7.1,14.8-21.9,24.3-38.1,24.3
		c-23.3,0-41.9-19-41.9-41.9c0-5.7,1-11,3.3-16.2h371.9c1.9,5.2,3.3,10.5,3.3,16.2C609.5,182.9,591,201.9,567.6,201.9z"/>
</g>
<g display="none">
	<g display="inline">
		<path d="M569.5,77.6l-314.3,94.8c-19,5.7-19.5,32.9-0.5,39.1l79.5,26.7c6.2,1.9,12.9,1.4,18.6-1.9l187.6-114.8
			c2.9-1.9,5.7,2.4,2.9,4.3L385.7,253.8c-6.7,5.2-8.1,14.8-3.3,21.9l71.9,112.9c11,16.7,36.2,14.3,43.3-4.8L600,110
			C607.1,91,589.1,71.9,569.5,77.6z"/>
		<path d="M346.2,264.8c-2.9-4.3-9.5-1.9-9.5,2.9v81.9c0,18.6,22.9,27.6,35.7,13.8l18.1-19.5c3.8-4.3,4.3-10.5,1-15.2L346.2,264.8z"
			/>
	</g>
</g>
<g display="none">
	<path display="inline" d="M558.1,35.2H283.8c-36.2,0-65.7,29.5-65.7,65.7v274.3c0,36.2,29.5,65.7,65.7,65.7h274.3
		c36.2,0,65.7-29.5,65.7-65.7V101C623.8,64.8,594.3,35.2,558.1,35.2z M364.3,136.7c0,23.8-19,42.9-42.9,42.9
		c-23.8,0-42.9-19-42.9-42.9s19-42.9,42.9-42.9C345.2,93.8,364.3,112.9,364.3,136.7z M555.2,119.5H410c-6.7,0-11.9-5.2-11.9-11.9
		c0-6.7,5.2-11.9,11.9-11.9h144.8c6.7,0,11.9,5.2,11.9,11.9C567.1,114.3,561.9,119.5,555.2,119.5z M567.1,168.6
		c0,6.7-5.2,11.9-11.9,11.9H410c-6.7,0-11.9-5.2-11.9-11.9s5.2-11.9,11.9-11.9h144.8C561.9,156.7,567.1,161.9,567.1,168.6z
		 M558.1,417.2H283.8c-22.9,0-41.4-18.6-41.4-41.4V241c56.7,0,301,0,357.6,0v134.3C600,398.1,581,417.2,558.1,417.2z"/>
</g>
<g display="none">
	<g display="inline">
		<path d="M336.2,237.6h8.1c46.2,0,83.3-37.6,83.3-83.3V131c0-46.2-37.6-83.3-83.3-83.3h-8.1c-46.2,0-83.3,37.6-83.3,83.3v23.3
			C252.8,200.5,290,237.6,336.2,237.6z M276.6,131c0-32.9,26.7-59.5,59.5-59.5h8.1c32.9,0,59.5,26.7,59.5,59.5v23.3
			c0,32.9-26.7,59.5-59.5,59.5h-8.1c-32.9,0-59.5-26.7-59.5-59.5V131z"/>
		<path d="M530.5,224.8h5.7c34.8,0,63.3-28.1,63.3-63.3v-12.9c0-34.3-28.6-62.9-63.3-62.9h-5.7c-34.8,0-63.3,28.1-63.3,63.3v12.9
			C467.6,196.2,495.7,224.8,530.5,224.8z M491.4,149.1c0-21.4,17.6-39.1,39.1-39.1h5.7c21.4,0,39.1,17.6,39.1,39.1v12.9
			c0,21.4-17.6,39.1-39.1,39.1h-5.7c-21.4,0-39.1-17.6-39.1-39.1V149.1z"/>
		<path d="M540,246.7h-16.2c-33.8,0-64.3,18.1-81.4,46.2c-18.6-17.6-43.3-28.1-71-28.1h-60.5c-57.1,0-103.8,46.7-103.8,103.8v6.7
			c0,29.5,23.8,53.8,53.8,53.8h161c28.6,0,51.9-22.9,53.3-51h127.6c17.6,0,31.9-14.3,31.9-31.9v-3.8
			C634.8,289.5,592.4,246.7,540,246.7z M451.4,374.8c0,16.2-13.3,29.5-29.5,29.5H260.5c-16.2,0-29.5-13.3-29.5-29.5v-6.7
			c0-44.3,35.7-80,80-80h60.5c44.3,0,80,35.7,80,80L451.4,374.8L451.4,374.8z M611,345.3c0,4.8-3.8,8.1-8.1,8.1H474.3
			c-1.9-14.8-7.6-28.6-15.2-41c11.4-25.2,36.7-42.4,64.8-42.4H540c39.1,0,71,31.9,71,71V345.3z"/>
	</g>
</g>
<g display="none">
	<g display="inline">
		<path d="M336.2,237.6h8.1c46.2,0,83.3-37.6,83.3-83.3V131c0-46.2-37.6-83.3-83.3-83.3h-8.1c-46.2,0-83.3,37.6-83.3,83.3v23.3
			C252.8,200.5,290,237.6,336.2,237.6z"/>
		<path d="M530.5,224.8h5.7c34.8,0,63.3-28.1,63.3-63.3v-12.9c0-34.3-28.6-62.9-63.3-62.9h-5.7c-34.8,0-63.3,28.1-63.3,63.3v12.9
			C467.6,196.2,495.7,224.8,530.5,224.8z"/>
		<path d="M371.4,264.8h-60.5c-57.1,0-103.8,46.7-103.8,103.8v6.7c0,29.5,23.8,53.8,53.8,53.8h161c29.5,0,53.8-23.8,53.8-53.8v-6.7
			C475.2,311.5,428.6,264.8,371.4,264.8z"/>
		<path d="M540,246.7h-16.2c-19,0-36.7,5.7-51.9,15.7c-5.2,3.3-6.2,11-1.9,15.7c21.9,23.8,35.2,55.2,35.2,90c0,0,0,0.5,0,1
			c0,4.3,3.3,8.1,8.1,8.1h89.5c17.6,0,31.9-14.3,31.9-31.9v-3.8C634.8,289.1,592.4,246.7,540,246.7z"/>
	</g>
</g>
<g display="none">
	<g display="inline">
		<path d="M371.4,231c47.1,0,85.2-38.1,85.2-85.2v-34.3c0-43.8-35.7-80-80-80h-11.4c-43.8,0-80,35.7-80,80v34.3
			C286.2,192.9,324.7,231,371.4,231z M310,111.4c0-31,25.2-56.2,56.2-56.2h11.4c31,0,56.2,25.2,56.2,56.2v34.3
			c0,33.8-27.6,61.4-61.4,61.4s-61.4-27.6-61.4-61.4v-34.3H310z"/>
		<path d="M403.8,257.2h-64.3c-71,0-128.6,57.6-128.6,128.6v3.3c0,30.5,24.8,55.2,55.2,55.2h211.4c30.5,0,55.2-24.8,55.2-55.2v-3.3
			C532.4,314.8,474.8,257.2,403.8,257.2z M508.6,389.6c0,17.1-14.3,31.4-31.4,31.4h-211c-17.1,0-31.4-14.3-31.4-31.4v-3.8
			c0-58.1,47.1-105.2,105.2-105.2h63.8c58.1,0,105.2,47.1,105.2,105.2v3.8H508.6z"/>
		<path d="M629.1,85.7l-27.1-27.1c-2.9-2.9-8.1-2.9-11,0l-13.3,13.3c-2.9,2.9-2.9,8.1,0,11l27.1,27.1c2.9,2.9,8.1,2.9,11,0
			l13.3-13.3C631.9,93.8,631.9,88.6,629.1,85.7z"/>
		<path d="M564.3,96.2c-2.9-2.9-8.1-2.9-11,0l-51,51c-1.4,1.4-2.4,3.3-2.4,5.7V180c0,4.3,3.3,7.6,7.6,7.6h27.1c1.9,0,3.8-1,5.7-2.4
			l51-51c2.9-2.9,2.9-8.1,0-11L564.3,96.2z"/>
	</g>
</g>
<g display="none">
	<g display="inline">
		<path d="M244.3,113.8h352.9c6.7,0,11.9-5.2,11.9-11.9c0-6.7-5.2-11.9-11.9-11.9H244.3c-6.7,0-11.9,5.2-11.9,11.9
			C232.4,108.6,238.1,113.8,244.3,113.8z"/>
		<path d="M597.6,226.2H244.3c-6.7,0-11.9,5.2-11.9,11.9s5.2,11.9,11.9,11.9h352.9c6.7,0,11.9-5.2,11.9-11.9
			S603.8,226.2,597.6,226.2z"/>
		<path d="M597.6,362.4H244.3c-6.7,0-11.9,5.2-11.9,11.9s5.2,11.9,11.9,11.9h352.9c6.7,0,11.9-5.2,11.9-11.9
			S603.8,362.4,597.6,362.4z"/>
	</g>
</g>
<g display="none">
	<g display="inline">
		<path d="M381.4,112.4h192.9c6.7,0,11.9-5.2,11.9-11.9c0-6.7-5.2-11.9-11.9-11.9H381.4c-6.7,0-11.9,5.2-11.9,11.9
			C369.5,107.2,374.8,112.4,381.4,112.4z"/>
		<path d="M574.3,226.2H381.4c-6.7,0-11.9,5.2-11.9,11.9s5.2,11.9,11.9,11.9h192.9c6.7,0,11.9-5.2,11.9-11.9S581,226.2,574.3,226.2z
			"/>
		<path d="M574.3,363.8H381.4c-6.7,0-11.9,5.2-11.9,11.9s5.2,11.9,11.9,11.9h192.9c6.7,0,11.9-5.2,11.9-11.9S581,363.8,574.3,363.8z
			"/>
		<circle cx="284.7" cy="100.5" r="29"/>
		<circle cx="284.7" cy="238.1" r="29"/>
		<circle cx="287.1" cy="375.7" r="29"/>
	</g>
</g>
<g display="none">
	<path display="inline" d="M599.1,271l-45.7-45.2c-11.4-11.4-19.5-26.7-22.9-44.8c-7.1-37.1-28.1-68.6-60-89.1
		c-15.7-10-32.9-16.7-50.5-20c0-2.9-0.5-5.2-1-8.1c-4.8-26.2-30.5-43.3-56.7-38.6C336.2,30,319,55.7,323.8,81.9
		c0.5,2.9,1.4,5.2,2.4,8.1c-35.7,21.9-60.5,60-64.8,103.3c-1.4,13.3-1,26.2,1.9,39.1c3.3,16.7,1.9,32.4-4.8,46.7l-25.7,58.1
		c-7.1,16.2-4.8,35.2,6.2,49.1c9,11.9,22.9,18.6,37.6,18.6c2.9,0,5.7-0.5,8.6-1l23.3-4.3c8.6,31,36.7,51.9,68.1,51.9
		c4.3,0,8.6-0.5,13.3-1.4c18.6-3.3,34.8-14.3,45.2-29.5c9.5-13.8,13.3-29.5,11.9-45.7l126.7-22.4c17.6-3.3,31.9-15.7,37.1-32.9
		C616.2,302.4,611.9,283.8,599.1,271z M347.6,77.6c-1.4-6.7,0-12.9,3.8-18.6c3.8-5.2,9-9,15.7-10.5c6.7-1.4,12.9,0,18.6,3.8
		c5.2,3.8,9,9,10.5,15.7c0,0.5,0,1,0,1.4c-10.5,0-21,1.4-31.4,3.8c-5.7,1.4-11,3.3-16.2,5.2C348.1,78.6,347.6,78.1,347.6,77.6z
		 M415.2,407.2c-7.1,10.5-17.6,17.1-30,19.5c-23.3,4.3-46.2-9.5-53.3-31.4l91.4-16.2C423.8,389.1,420.9,398.6,415.2,407.2z
		 M588.1,312.4c-2.9,8.6-9.5,14.8-18.6,16.7l-288.6,51.4c-9,1.4-17.6-1.9-23.3-9c-5.7-7.1-6.7-16.2-2.9-24.8l25.7-58.1
		c8.1-18.6,10.5-39.5,6.2-61c-1.9-10.5-2.4-21.4-1.4-31.9c4.8-47.6,39.1-87.6,84.8-98.6c9-2.4,18.1-3.3,27.1-3.3
		c21.4,0,42.4,6.2,60.5,18.1c26.2,16.7,43.8,42.9,49.5,73.8c4.3,22.4,14.3,42.4,29.5,57.1l45.7,45.2
		C588.6,294.3,591,303.4,588.1,312.4z"/>
</g>
<g display="none">
	<path display="inline" d="M420.9,22.9c-120,0-217.2,89.5-217.2,200.5c0,60.5,29,114.8,75.2,151.9v61.9c0,13.3,15.2,21,26.2,13.3
		l48.6-36.2c21.4,6.2,43.8,10,67.1,10c120,0,217.2-90,217.2-201S541,22.9,420.9,22.9z M533.8,175.3L449,273.4
		c-3.8,4.8-11,4.8-15.2,0l-35.7-39.1l-83.8,43.8c-4.8,2.4-9-3.3-5.7-7.1l89.5-102.4c3.8-4.8,11-4.8,15.2-0.5l39.1,41.4l76.2-41.4
		C532.4,165.7,537.1,171.4,533.8,175.3z"/>
</g>
<g display="none">
	<g display="inline">
		<path d="M596.2,44.3c-1.4-4.8-6.2-8.1-11.4-8.1H257.1c-5.2,0-9.5,3.3-11.4,8.1l-25.2,72.4H621L596.2,44.3z"/>
		<path d="M631.9,146.7H210c-1,4.3-1.4,8.6-1.4,13.3c0,36.2,29.5,65.7,65.7,65.7c19,0,36.7-8.1,49.1-21.9
			c12.4,13.8,30,21.9,49.1,21.9c19,0,36.7-8.1,49.1-21.9c12.4,13.8,30,21.9,49.1,21.9s36.7-8.1,49.1-21.9
			c12.4,13.8,30,21.9,49.1,21.9c36.2,0,65.7-29.5,65.7-65.7C633.3,155.2,632.9,151,631.9,146.7z"/>
		<path d="M518.6,241.9c-14.8,8.6-31.4,13.3-49.1,13.3c-17.1,0-34.3-4.8-49.1-13.3c-14.8,8.6-31.4,13.3-49.1,13.3
			c-17.1,0-34.3-4.8-49.1-13.3c-14.8,8.6-31.4,13.3-49.1,13.3c-10,0-20-1.4-29-4.8v158.1c0,17.1,13.8,31,31,31h98.1V309.1
			c0-7.1,5.7-12.4,12.4-12.4h68.6c7.1,0,12.4,5.7,12.4,12.4v131h98.1c17.1,0,31-13.8,31-31V251c-9,2.9-19,4.8-29,4.8
			C550.5,255.7,533.3,251,518.6,241.9z"/>
	</g>
</g>
<g display="none">
	<path display="inline" d="M593.3,265.7c0-11.4-5.2-22.4-13.3-29.5c5.7-7.6,8.1-17.1,7.1-26.7c-1.9-20-20-36.2-41-36.2h-61.9
		l3.8-29.5c1-9,1-16.7-1-24.3c-7.1-31-34.8-52.9-66.7-52.9c-7.1,0-14.3,2.9-19.5,8.1s-8.1,11.9-8.1,19v39.1
		c0,17.1-4.8,33.3-13.8,48.1l-16.7,26.7c-2.4,3.8-5.7,6.7-9.5,8.6c-3.3-10.5-12.9-18.1-24.3-18.1h-54.8c-14.3,0-25.7,11.4-25.7,25.7
		v160.5c0,14.3,11.4,25.7,25.7,25.7h55.7c14.3,0,25.7-11.4,25.7-25.7v-3.8c12.4,11,28.6,17.6,46.2,17.6h121c11,0,21.9-4.8,29.5-12.4
		c7.6-7.6,11.4-17.6,11-28.1c0-3.8-0.5-7.1-1.9-11c12.9-6.7,21.4-20,21.4-35.2c0-5.2-1-10.5-2.9-15.2
		C588.1,288.1,593.3,277.2,593.3,265.7z M330.9,383.8c0,1-1,1.9-1.9,1.9h-55.2c-1,0-1.9-1-1.9-1.9V223.3c0-1,1-1.9,1.9-1.9h55.7
		c1,0,1.9,1,1.9,1.9v160.5H330.9z M560.5,280c-3.8,1.9-6.7,5.2-7.6,9.5c-1,4.3,0,8.6,2.9,11.9c2.4,2.9,3.3,6.2,3.3,9.5
		c0,7.6-5.7,14.3-13.3,15.7c-4.8,1-9,3.8-11,8.6s-1.4,9.5,1.4,13.8c1.9,2.4,2.9,5.7,2.9,9c0,3.8-1.4,8.1-4.3,11
		c-3.3,3.3-8.1,5.2-12.9,5.2h-121c-25.2,0-46.2-20.5-46.2-46.2v-87.6c11.9-2.9,21.9-10,28.6-20.5l16.7-26.7
		c11.4-18.1,17.6-39.1,17.6-60.5V93.8c0-1,0.5-1.9,1-2.4c0.5-0.5,1.4-1,2.4-1l0,0c21,0,38.6,14.3,43.3,34.3c1,4.3,1.4,9.5,0.5,15.7
		l-4.3,33.3c-1,5.7,1,11.4,4.8,16.2c3.8,4.3,9.5,7.1,15.2,7.1h65.7c8.1,0,16.2,6.7,17.1,14.3c0.5,5.7-2.4,11.4-7.1,14.8
		c-4.3,2.9-6.7,8.1-6.2,13.3c0.5,5.2,3.8,9.5,9,11.4c6.2,2.4,10,8.1,10,14.8C569.5,271.9,566.2,277.2,560.5,280z"/>
</g>
<g display="none">
	<g display="inline">
		<path d="M344.3,403.4c-2.9,0-6.2-0.5-9-1.9c-7.6-3.3-12.4-11-12.4-19.5v-49.1c-40-8.1-69.5-44.3-69.5-85.7v-86.7
			c0-48.1,39.1-87.6,87.6-87.6h160.5c48.1,0,87.6,39.1,87.6,87.6v87.1c0,48.1-39.1,87.6-87.6,87.6h-66.2c-2.4,0-5.2,1-7.1,2.4
			l-70,60.5C354.3,401.9,349.5,403.4,344.3,403.4z M340.9,96.7c-35.2,0-63.8,28.6-63.8,63.8v87.1c0,31.9,23.8,59.1,55.2,62.9
			c8.1,1,14.3,8.1,14.3,16.2v49.5l65.7-57.1c6.2-5.2,14.3-8.6,22.4-8.6H501c35.2,0,63.8-28.6,63.8-63.8v-86.2
			c0-35.2-28.6-63.8-63.8-63.8C501,96.7,340.9,96.7,340.9,96.7z"/>
	</g>
</g>
<g display="none">
	<g display="inline">
		<circle cx="325.7" cy="238.1" r="20"/>
		<circle cx="420.9" cy="238.1" r="20"/>
		<circle cx="516.2" cy="238.1" r="20"/>
		<path d="M420.9,42.9c-107.6,0-195.3,87.6-195.3,195.3s87.6,195.3,195.3,195.3s195.3-87.6,195.3-195.3S528.6,42.9,420.9,42.9z
			 M420.9,409.6c-94.8,0-171.4-77.1-171.4-171.4S326.7,66.7,420.9,66.7c94.8,0,171.4,77.1,171.4,171.4S515.7,409.6,420.9,409.6z"/>
	</g>
</g>
<g display="none">
	<g display="inline">
		<path d="M264.7,399.1c-1,0-2.4,0-3.3-0.5c-7.1-1.4-11.9-6.7-12.9-13.8c-1.4-9.5-1.9-19-1.9-29c0-101.9,75.2-189.1,175.7-203.3
			V97.6c0-8.1,4.8-15.7,12.9-19c7.6-3.3,16.7-1.4,22.4,4.3l131.4,131.4c4.8,4.8,7.1,10.5,7.1,17.1c0,6.7-2.4,12.4-7.1,17.1
			L457.1,380c-5.7,5.7-14.8,7.6-22.4,4.3c-7.6-3.3-12.9-10.5-12.9-19v-61c-59.1,3.8-112.4,36.2-143.3,86.7
			C275.7,396.2,270.5,399.1,264.7,399.1z M446.2,105.7v49.1c0,10.5-8.1,19.5-18.6,21c-90,11.9-157.6,89.5-157.6,180
			c0,1.9,0,3.8,0,5.7c36.7-48.6,92.9-78.6,154.3-81.4c5.7-0.5,11,1.9,15.2,5.7c4.3,3.8,6.7,9.5,6.7,15.2v56.7l125.7-125.7v-0.5
			L446.2,105.7z"/>
	</g>
</g>
<g>
	<g>
		<circle cx="420.9" cy="256.7" r="81.9"/>
		<path d="M561.4,106.2H541c-9,0-18.1-3.8-24.3-10L490,69.1c-8.1-8.6-19.5-13.3-31.4-13.3h-77.6c-11.9,0-23.8,4.8-31.9,13.8
			l-25.2,26.2c-6.7,6.7-15.2,10.5-24.8,10.5h-18.6c-33.8,0-61.4,27.6-61.4,61.4v191.4c0,33.8,27.6,61.4,61.4,61.4h281
			c33.8,0,61.4-27.6,61.4-61.4V167.6C622.9,133.8,595.2,106.2,561.4,106.2z M420.9,369.5c-62.4,0-112.9-50.5-112.9-112.9
			s50.5-112.9,112.9-112.9s112.9,50.5,112.9,112.9S483.3,369.5,420.9,369.5z M557.6,191.4c-12.9,0-23.3-10.5-23.3-23.3
			c0-12.9,10.5-23.3,23.3-23.3c12.9,0,23.3,10.5,23.3,23.3C581,181,570.5,191.4,557.6,191.4z"/>
	</g>
</g>
<g display="none">
	<g display="inline">
		<path d="M420.9,121.4c-39.5,0-71.4,31.9-71.4,71.4s31.9,71.4,71.4,71.4s71.4-31.9,71.4-71.4S460.5,121.4,420.9,121.4z
			 M420.9,240.5c-26.2,0-47.6-21.4-47.6-47.6s21.4-47.6,47.6-47.6s47.6,21.4,47.6,47.6S447.1,240.5,420.9,240.5z"/>
		<path d="M534.8,71c-33.3-31-77.1-46.7-122.9-43.8c-88.1,4.8-157.2,77.6-157.2,165.7c0,119.5,116.7,222.4,151.9,251.4
			c4.3,3.3,9,4.8,13.8,4.8c4.8,0,10-1.4,13.8-4.8c14.8-11.9,53.3-44.8,87.6-89.5c43.8-56.7,65.2-112.4,64.3-164.8
			C586.2,144.3,567.6,101.9,534.8,71z M420.9,425.3c-26.2-21-142.4-121.9-142.4-231.9c0-75.7,59.1-138.1,134.3-141.9
			c2.9,0,5.7,0,8.6,0c36.2,0,70.5,13.3,97.1,38.1c28.1,26.2,44.3,62.4,44.8,101.9C565.2,301.4,447.1,403.8,420.9,425.3z"/>
	</g>
</g>
<g display="none">
	<g display="inline">
		<path d="M377.6,231c47.1,0,85.2-38.1,85.2-85.2v-34.3c0-43.8-35.7-80-80-80h-11.4c-43.3,0-79.1,35.7-79.1,80v34.3
			C292.4,192.9,330.5,231,377.6,231z M316.2,111.4c0-31,25.2-56.2,56.2-56.2h11.4c31,0,56.2,25.2,56.2,56.2v34.3
			c0,33.8-27.6,61.4-61.4,61.4s-62.4-27.6-62.4-61.4V111.4z"/>
		<path d="M409.5,257.2h-63.8c-71,0-129.1,57.6-129.1,128.6v3.3c0,30.5,24.8,55.2,55.2,55.2h211.4c30.5,0,55.2-24.8,55.2-55.2v-3.3
			C538.6,314.8,480.5,257.2,409.5,257.2z M514.8,389.6c0,17.1-14.3,31.4-31.4,31.4H271.9c-17.1,0-31.4-14.3-31.4-31.4v-3.8
			c0-57.6,47.1-104.8,105.2-104.8h63.8c58.1,0,105.2,47.1,105.2,105.2V389.6z"/>
		<path d="M622.4,137.6l-50.5-50c-1.9-1.9-4.3-2.9-7.1-2.9h-47.1c-2.9,0-5.2,1-7.1,2.9l-6.2,6.2c-1.9,1.9-2.9,4.3-2.9,7.1v47.1
			c0,2.9,1,5.2,2.9,7.1l50.5,50.5c3.8,3.8,10.5,3.8,14.3,0l53.3-53.3C626.2,148.1,626.2,141.4,622.4,137.6z M533.3,129.1
			c-6.7,0-12.4-5.7-12.4-12.4c0-6.7,5.7-12.4,12.4-12.4c6.7,0,12.4,5.7,12.4,12.4C546.2,123.3,540.5,129.1,533.3,129.1z"/>
	</g>
</g>
<g display="none">
	<g display="inline">
		<path d="M599.1,271L599.1,271l-45.7-45.2c-11.4-11.4-19.5-26.7-22.9-44.3V181c-7.1-37.1-28.1-68.6-60-89.1
			c-15.7-10-32.9-16.7-50.5-20c0-2.9-0.5-5.2-1-8.1c-4.3-23.3-24.8-39.5-47.6-39.5c-2.9,0-5.7,0.5-9,1c-12.9,2.4-23.8,9.5-31,20.5
			c-7.1,11-10,23.3-7.6,36.2c0.5,2.9,1.4,5.2,2.4,8.1c-35.7,21.9-60.5,60-64.8,103.3c-1.4,13.3-1,26.2,1.9,39.1
			c3.3,16.7,1.9,32.4-4.3,46.7l-25.7,58.1c-7.1,16.2-4.8,35.2,6.2,49.1c9,11.9,22.9,18.6,37.6,18.6l0,0c2.9,0,5.7-0.5,8.6-1
			l288.1-51.4c17.6-3.3,31.9-15.7,37.1-32.9C616.2,301.9,611.9,283.8,599.1,271z M364.8,73.8c-5.7,1.4-11,3.3-16.7,5.2
			c0-0.5-0.5-1-0.5-1.9c-2.4-13.3,6.2-26.2,19.5-28.6c1.4-0.5,2.9-0.5,4.8-0.5c11.4,0,21.9,8.1,24.3,20c0,0.5,0,1,0,1.4
			C385.7,70,375.2,71.4,364.8,73.8z"/>
		<path d="M336.7,439.1c11.9,8.1,25.7,12.4,40,12.4c4.3,0,9-0.5,13.3-1.4c18.6-3.3,34.8-14.3,45.2-29.5c3.3-4.8,5.7-9.5,7.6-14.8
			l-119.5,21.4C327.1,431.5,331.4,435.7,336.7,439.1z"/>
	</g>
</g>
<g display="none">
	<g display="inline">
		<path d="M500.5,36.2H341.4C268.6,36.2,209,95.7,209,168.6v138.6c0,73.3,59.5,132.4,132.4,132.4h159.1
			c73.3,0,132.4-59.5,132.4-132.4V168.6C632.9,95.7,573.3,36.2,500.5,36.2z M609.1,307.6c0,60-48.6,108.6-108.6,108.6H341.4
			c-60,0-108.6-48.6-108.6-108.6V168.6c0-60,48.6-108.6,108.6-108.6h159.1c60,0,108.6,48.6,108.6,108.6V307.6z"/>
		<path d="M446.2,151.9c-6.7,0-11.9,5.2-11.9,11.9v158.1c0,6.7,5.2,11.9,11.9,11.9s11.9-5.2,11.9-11.9V163.8
			C458.1,157.2,452.9,151.9,446.2,151.9z"/>
		<path d="M497.6,151.9c-6.7,0-11.9,5.2-11.9,11.9v158.1c0,6.7,5.2,11.9,11.9,11.9s11.9-5.2,11.9-11.9V250h59.5
			c6.7,0,11.9-5.2,11.9-11.9s-5.2-11.9-11.9-11.9h-59.5v-50.5h59.5c6.7,0,11.9-5.2,11.9-11.9s-5.2-11.9-11.9-11.9
			C569.1,151.9,497.6,151.9,497.6,151.9z"/>
		<path d="M348.6,175.7c15.2,0,30,8.1,40.5,22.4c3.8,5.2,11.4,6.7,16.7,2.4c5.2-3.8,6.7-11.4,2.4-16.7
			c-14.8-20.5-36.7-31.9-59.5-31.9c-43.3,0-78.1,41-78.1,91s35.2,91,78.1,91c22.9,0,44.8-11.4,59.5-31.9c1.4-1.9,2.4-4.3,2.4-7.1
			v-47.1c0-6.7-5.2-11.9-11.9-11.9s-11.9,5.2-11.9,11.9v42.9c-10,12.4-23.8,19-38.1,19c-30,0-54.3-30-54.3-67.1
			S318.6,175.7,348.6,175.7z"/>
	</g>
</g>
<g display="none">
	<g display="inline">
		<path d="M381.9,231c47.1,0,85.2-38.1,85.2-85.2v-34.3c0-43.8-35.7-80-80-80h-11.4c-43.8,0-80,35.7-80,80v34.3
			C296.7,192.9,335.2,231,381.9,231z M320.5,111.4c0-31,25.2-56.2,56.2-56.2h11c31,0,56.2,25.2,56.2,56.2v34.3
			c0,33.8-27.6,61.4-61.4,61.4s-61.4-27.6-61.4-61.4v-34.3H320.5z"/>
		<path d="M414.3,257.2H350c-71,0-128.6,57.6-128.6,128.6v3.3c0,30.5,24.8,55.2,55.2,55.2h211c30.5,0,55.2-24.8,55.2-55.2v-3.3
			C542.9,314.8,485.2,257.2,414.3,257.2z M519,389.6c0,17.1-14.3,31.4-31.4,31.4h-211c-17.1,0-31.4-14.3-31.4-31.4v-3.8
			c0-57.6,47.1-104.8,104.8-104.8h63.8c58.1,0,105.2,47.1,105.2,105.2V389.6z"/>
		<path d="M608.6,130.5h-33.3V97.1c0-6.7-5.2-11.9-11.9-11.9c-6.7,0-11.9,5.2-11.9,11.9v33.3h-33.3c-6.7,0-11.9,5.2-11.9,11.9
			c0,6.7,5.2,11.9,11.9,11.9h33.3v33.3c0,6.7,5.2,11.9,11.9,11.9c6.7,0,11.9-5.2,11.9-11.9v-33.3h33.3c6.7,0,11.9-5.2,11.9-11.9
			C620.5,135.7,615.2,130.5,608.6,130.5z"/>
	</g>
</g>
<g display="none">
	<g display="inline">
		<path d="M420.9,42.9c-107.6,0-195.3,87.6-195.3,195.3s87.6,195.3,195.3,195.3s195.3-87.6,195.3-195.3S528.6,42.9,420.9,42.9z
			 M420.9,409.6c-94.8,0-171.4-77.1-171.4-171.4c0-94.8,77.1-171.4,171.4-171.4s171.4,77.1,171.4,171.4
			C592.4,332.9,515.7,409.6,420.9,409.6z"/>
		<circle cx="346.7" cy="189.1" r="19"/>
		<circle cx="495.2" cy="189.1" r="19"/>
		<path d="M513.8,252.4H328.1c-6.2,0-12.4,2.9-16.2,8.1c-3.8,5.2-4.8,11.4-3.3,17.6c14.8,49.5,61,83.8,112.4,83.8
			s97.6-34.3,111.9-83.8c1.9-6.2,0.5-12.4-3.3-17.6C525.7,255.7,520,252.4,513.8,252.4z M387.6,331.9c9-8.1,21-12.9,33.3-12.9
			c12.4,0,24.3,4.8,33.3,12.4c-10.5,3.8-21.4,6.2-33.3,6.2C409.5,338.1,398.1,335.7,387.6,331.9z M475.7,320
			c-13.8-15.7-33.8-24.8-54.8-24.8c-21.4,0-41,9-54.8,24.8c-14.8-11-26.2-25.7-32.4-43.3h174.8C501.9,294.3,490.5,309.1,475.7,320z"
			/>
	</g>
</g>
<g display="none">
	<g display="inline">
		<path d="M624.3,112.9c-7.1-3.8-16.2-3.3-22.9,1.4l-87.6,61.9v-44.3c0-33.8-27.1-61-61-61H266.6c-33.8,0-61,27.1-61,61v211.9
			c0,33.8,27.1,61,61,61h186.2c33.8,0,61-27.1,61-61v-44.3l87.6,61.9c3.8,2.9,8.1,3.8,12.9,3.8c3.3,0,6.7-1,10-2.4
			c7.1-3.8,11.9-11.4,11.9-19.5v-211C636.2,123.8,631.4,116.7,624.3,112.9z M490,343.8c0,20.5-16.7,37.1-37.1,37.1H266.6
			c-20.5,0-37.1-16.7-37.1-37.1V132.4c0-20.5,16.7-37.1,37.1-37.1h186.2c20.5,0,37.1,16.7,37.1,37.1V343.8z M513.8,205.7l37.1-26.7
			v117.6L513.8,270V205.7z M612.4,340.5l-37.1-26.7V162.4l37.1-26.7V340.5z"/>
		<path d="M360,166.2c-42.9,0-81.9,23.8-101.4,62.4c-3.3,6.2-3.3,13.8,0,20C278.1,287.2,317.1,311,360,311s81.9-23.8,101.4-62.4
			c3.3-6.2,3.3-13.8,0-20C441.9,190,402.8,166.2,360,166.2z M360,286.2c-33.8,0-64.3-18.6-80-48.1c15.7-30,46.2-48.1,80-48.1
			s63.8,18.1,79.5,48.1C423.8,268.1,393.3,286.2,360,286.2z"/>
		<circle cx="360" cy="238.1" r="44.3"/>
	</g>
</g>
<g display="none">
	<g display="inline">
		<path d="M543.3,27.1H298.6c-33.3,0-61,27.1-61,61v300c0,33.3,27.1,61,61,61h244.8c33.3,0,61-27.1,61-61v-300
			C604.3,54.8,577.1,27.1,543.3,27.1z M580.5,388.1c0,20.5-16.7,36.7-36.7,36.7H298.6c-20.5,0-36.7-16.7-36.7-36.7v-300
			c0-20.5,16.7-36.7,36.7-36.7h244.8c20.5,0,36.7,16.7,36.7,36.7v300H580.5z"/>
		<path d="M367.6,163.8c0,0,0-0.5-0.5-0.5c0-0.5-0.5-1-0.5-1c0-0.5-0.5-0.5-0.5-1c-0.5-0.5-0.5-0.5-1-1c-0.5-0.5-0.5-0.5-1-1
			c-0.5-0.5-0.5-0.5-1-0.5c-0.5,0-0.5-0.5-1-0.5c0,0-0.5,0-0.5-0.5h-0.5c-0.5,0-1-0.5-1-0.5c-0.5,0-1,0-1-0.5c-0.5,0-1,0-1,0
			c-0.5,0-1,0-1,0c-0.5,0-1,0-1,0c-0.5,0-1,0-1,0c-0.5,0-1,0-1,0.5c-0.5,0-1,0.5-1,0.5h-0.5c0,0-0.5,0-0.5,0.5c-0.5,0-0.5,0.5-1,0.5
			c-0.5,0-0.5,0.5-1,0.5c-0.5,0.5-0.5,0.5-1,1c-0.5,0.5-0.5,0.5-1,1c0,0.5-0.5,0.5-0.5,1c0,0.5-0.5,0.5-0.5,1c0,0,0,0.5-0.5,0.5
			l-67.1,141c-2.9,6.2,0,12.9,5.7,15.7c1.4,1,3.3,1,5.2,1c4.3,0,8.6-2.4,11-6.7l17.1-37.1h75.2l17.1,37.1c1.9,4.3,6.2,6.7,11,6.7
			c1.9,0,3.3-0.5,5.2-1c6.2-2.9,8.6-10,5.7-15.7L367.6,163.8z M330.5,253.8l26.7-56.7l26.7,56.7L330.5,253.8L330.5,253.8z"/>
		<path d="M501,180c-21.4,0-40.5,14.3-46.2,35.2c-1.9,6.2,1.9,12.9,8.6,14.8c6.2,1.9,12.9-1.9,14.8-8.6
			c2.9-10.5,12.4-17.6,23.3-17.6c13.3,0,23.8,11,23.8,23.8v10.5l-28.6-1c-23.3,0-41.9,19-41.9,41.9c0,22.9,19,41.9,41.9,41.9
			c11.4,0,21-4.3,28.6-10.5c1,5.7,5.7,10.5,11.9,10.5c6.7,0,11.9-5.2,11.9-11.9v-81.4C548.6,201.4,527.1,180,501,180z M496.2,297.6
			c-10,0-18.1-8.1-18.1-18.1s8.1-18.1,17.6-18.1l29,1C524.3,272.9,515.2,297.6,496.2,297.6z"/>
	</g>
</g>
<g display="none">
	<g display="inline">
		<path d="M622.9,235.3c-6.7-3.8-14.8-3.3-21,0.5l-65.7,41.9v-11.9c0-25.7-16.7-47.6-39.5-55.7c25.2-16.7,42.4-45.7,42.4-78.6
			c0-51.9-42.4-93.8-93.8-93.8c-43.3,0-80,29.5-90.5,69.5c-13.3-15.2-32.4-24.8-53.8-24.8c-39.5,0-71.4,31.9-71.4,71.4
			c0,21.9,9.5,41,25.2,54.3c-26.7,6.7-45.7,30-45.7,58.1v113.3c0,32.9,26.7,59.1,59.1,59.1h209.1c32.9,0,59.1-26.7,59.1-59.1v-1.9
			l66.2,41.4c3.3,2.4,7.1,3.3,11,3.3c3.3,0,6.7-1,10-2.4c6.2-3.3,10-9.5,10-16.7V251.9C632.9,244.8,629.5,238.6,622.9,235.3z
			 M366.2,182.9c6.2,9.5,13.8,17.6,22.4,24.3H349C356.2,200,361.9,191.9,366.2,182.9z M445.2,61.4c38.6,0,70,31.4,70,70
			s-31.4,70-70,70s-70-31.4-70-70C374.8,92.9,406.2,61.4,445.2,61.4z M300.5,106.7c26.2,0,47.6,21.4,47.6,47.6s-21.4,47.6-47.6,47.6
			s-47.6-21.4-47.6-47.6S274.3,106.7,300.5,106.7z M512.9,379.1c0,19.5-15.7,35.2-35.2,35.2H268.1c-19.5,0-35.2-15.7-35.2-35.2
			V266.2c0-19.5,15.7-35.2,35.2-35.2h209.1c19.5,0,35.2,15.7,35.2,35.2v112.9H512.9z M609.1,395.3l-72.9-46.7v-42.4l72.9-46.7V395.3
			z"/>
		<path d="M430.9,310.5H314.3c-6.7,0-11.9,5.2-11.9,11.9s5.2,11.9,11.9,11.9h116.7c6.7,0,11.9-5.2,11.9-11.9
			S437.6,310.5,430.9,310.5z"/>
	</g>
</g>
<g display="none">
	<g display="inline">
		<path d="M436.2,330l-60,60c-27.6,27.6-71.9,27.6-99.5,0l-5.2-5.2c-13.3-13.3-20.5-31-20.5-50c0-18.6,7.1-36.7,20.5-50l73.3-72.9
			c27.6-27.6,71.9-27.6,99.5,0l5.2,5.2c7.6,7.6,13.3,16.2,16.7,26.2c2.4,6.2,9,9.5,15.2,7.1c6.2-2.4,9.5-9,7.1-15.2
			c-4.8-13.3-12.4-25.2-22.4-35.2l-5.2-4.8c-36.7-36.7-96.7-36.7-133.3,0l-73.3,73.3c-17.6,17.6-27.6,41.4-27.6,66.7
			c0,25.2,10,49.1,27.6,66.7l5.2,5.2c18.6,18.6,42.4,27.6,66.7,27.6c24.3,0,48.1-9,66.7-27.6l60-60c4.8-4.8,4.8-12.4,0-16.7
			C448.6,325.3,440.9,325.3,436.2,330z"/>
		<path d="M587.6,74.3l-5.2-5.2c-36.7-36.7-96.7-36.7-133.3,0l-60,60.5c-4.8,4.8-4.8,12.4,0,16.7c4.8,4.8,12.4,4.8,16.7,0l60-60
			c27.6-27.6,71.9-27.6,99.5,0l5.2,5.2c27.6,27.6,27.6,71.9,0,99.5l-73.3,73.3c-13.3,13.3-31,20.5-50,20.5c-19,0-36.7-7.1-50-20.5
			l-4.8-5.2c-7.6-7.6-13.3-16.2-16.7-26.2c-2.4-6.2-9-9.5-15.2-7.1c-6.2,2.4-9.5,9-7.1,15.2c4.8,13.3,12.4,25.2,22.4,35.2l5.2,5.2
			c17.6,17.6,41.4,27.6,66.7,27.6s49.1-10,66.7-27.6l73.3-73.8C624.3,171,624.3,111,587.6,74.3z"/>
	</g>
</g>
<g display="none">
	<g display="inline">
		<circle cx="416.7" cy="141" r="27.1"/>
		<path d="M620.5,73.3c-9-10.5-21.9-16.7-35.7-17.6L392.8,41.9c-1.4,0-2.4,0-3.8,0c-26.7,0-49.5,21-51.9,48.1l-19,275.3
			c-1,13.8,3.3,27.1,12.4,37.6c9,10.5,21.9,16.7,35.7,17.6l192.4,13.3c1.4,0,2.4,0,3.8,0c12.4,0,24.3-4.3,33.8-12.9
			c10.5-9,16.7-21.9,17.6-35.7l8.6-120l0,0l11-155.2C634.3,97.1,629.5,83.8,620.5,73.3z M361.4,91.9c1-14.8,13.3-26.2,28.1-26.2
			c0.5,0,1.4,0,1.9,0l192.4,13.3c15.2,1,27.1,14.3,26.2,30l-9,126.7l-49.5-56.7c-4.3-4.8-11.4-5.7-16.7-1.4L439,257.2l-27.6-31.4
			c-4.3-4.8-11.4-5.2-16.2-1.4L349.5,261L361.4,91.9z M590,384.3c-0.5,7.6-3.8,14.3-9.5,19c-5.2,4.3-11.4,6.7-18.6,6.7
			c-0.5,0-1.4,0-1.9,0l-192.4-13.3c-15.2-1-27.1-14.3-26.2-30l5.2-73.8l53.8-43.3l49.1,55.2c2.4,2.9,5.7,3.8,9,3.8
			c2.9,0,5.7-1,8.1-2.9c4.8-4.3,5.2-11.9,1-16.7l-12.4-13.8l86.2-71.9l57.1,66.2L590,384.3z"/>
		<path d="M258.1,72.9l53.3-4.3c2.9-9,7.6-17.6,13.3-24.8l-68.6,5.7c-13.8,1-26.2,7.6-35.2,18.1c-9,10.5-13.3,23.8-12.4,37.6
			L230.5,380c1,13.8,7.6,26.2,18.1,35.2c9.5,8.1,21.4,12.4,33.3,12.4c1.4,0,2.9,0,4.3,0l24.3-1.9c-1-1-1.9-1.9-2.9-2.9
			c-5.2-6.2-9.5-12.9-12.9-19.5l-11,1c-7.6,0.5-14.8-1.9-20.5-6.7s-9-11.4-10-19l-21.9-274.8c-0.5-7.6,1.9-14.8,6.7-20.5
			C243.8,76.7,250.9,73.3,258.1,72.9z"/>
	</g>
</g>
<g display="none">
	<g display="inline">
		<path d="M426.7,97.6h-11.4c-43.8,0-80,35.7-80,80v34.3c0,47.1,38.1,85.2,85.2,85.2s85.2-38.1,85.2-85.2v-34.3
			C506.2,133.3,470.5,97.6,426.7,97.6z M482.4,211.9c0,33.8-27.6,61.4-61.4,61.4s-61.4-27.6-61.4-61.4v-34.3
			c0-31,25.2-56.2,56.2-56.2h11.4c31,0,56.2,25.2,56.2,56.2v34.3H482.4z"/>
		<path d="M574.3,47.6H267.6c-20.5,0-37.1,16.7-37.1,37.1v307.2c0,20.5,16.7,37.1,37.1,37.1h307.2c20.5,0,37.1-16.7,37.1-37.1V84.8
			C611.4,64.3,594.8,47.6,574.3,47.6z M295.2,404.8c17.1-34.3,52.9-58.1,93.8-58.1h63.8c41,0,76.7,23.8,93.8,58.1H295.2z
			 M587.6,391.5c0,7.1-5.7,13.3-13.3,13.3h-1.4c-19-47.6-65.2-81.9-120-81.9H389c-54.3,0-101,33.8-120,81.9h-1.4
			c-7.1,0-13.3-5.7-13.3-13.3V84.8c0-7.1,5.7-13.3,13.3-13.3h307.2c7.1,0,13.3,5.7,13.3,13.3v306.7H587.6z"/>
	</g>
</g>
</svg>
