<?xml version="1.0" encoding="utf-8"?>
<!-- Generator: Adobe Illustrator 18.0.0, SVG Export Plug-In . SVG Version: 6.00 Build 0)  -->
<!DOCTYPE svg PUBLIC "-//W3C//DTD SVG 1.1//EN" "http://www.w3.org/Graphics/SVG/1.1/DTD/svg11.dtd">
<svg version="1.1" xmlns="http://www.w3.org/2000/svg" xmlns:xlink="http://www.w3.org/1999/xlink" x="0px" y="0px"
	 viewBox="0 0 1920 795.4" enable-background="new 0 0 1920 795.4" xml:space="preserve">
<pattern  x="585" y="386.5" width="13.8" height="13.8" patternUnits="userSpaceOnUse" id="New_Pattern_Swatch_1" viewBox="0 -13.8 13.8 13.8" overflow="visible">
	<g>
		<polygon fill="none" points="0,-13.8 13.8,-13.8 13.8,0 0,0 		"/>
		<polygon fill="#FFFFFF" points="6.9,-6.9 0,-6.9 0,-13.8 6.9,-13.8 		"/>
		<polygon fill="#B2B4B5" points="6.9,0 0,0 0,-6.9 6.9,-6.9 		"/>
		<polygon fill="#B2B4B5" points="13.8,-6.9 6.9,-6.9 6.9,-13.8 13.8,-13.8 		"/>
		<polygon fill="#FFFFFF" points="13.8,0 6.9,0 6.9,-6.9 13.8,-6.9 		"/>
	</g>
</pattern>
<g id="OBJECTS">
	<g>
		<image overflow="visible" width="1994" height="700" xlink:href="84DB7AC1.png"  transform="matrix(1 0 0 1 -36 -36.493)">
		</image>
	</g>
	<rect x="-0.4" y="1.2" display="none" fill="#FFFFFF" width="1920.8" height="791.4"/>
	<pattern  id="SVGID_1_" xlink:href="#New_Pattern_Swatch_1" patternTransform="matrix(1.0972 0 0 0.9143 803.0107 -644.0734)">
	</pattern>
	<rect y="0" display="none" fill="url(#SVGID_1_)" width="1920" height="806.9"/>
	<g opacity="0.8">
		<image overflow="visible" width="2016" height="611" xlink:href="84DB7AC3.png"  transform="matrix(1 0 0 1 -39 -91.493)">
		</image>
	</g>
	<g opacity="0.5">
		<image overflow="visible" width="915" height="451" xlink:href="84DB7AC6.png"  transform="matrix(1 0 0 1 17 212.507)">
		</image>
	</g>
	<g opacity="0.3">
		<image overflow="visible" width="915" height="451" xlink:href="84DB7AC7.png"  transform="matrix(1 0 0 1 -43 209.507)">
		</image>
	</g>
	<g opacity="0.3">
		<image overflow="visible" width="914" height="451" xlink:href="84DB7AC2.png"  transform="matrix(1 0 0 1 1041 212.507)">
		</image>
	</g>
	<g>
		<image overflow="visible" width="489" height="178" xlink:href="84DB7ACD.png"  transform="matrix(1 0 0 1 797 234.507)">
		</image>
	</g>
	<g>
		<image overflow="visible" width="347" height="143" xlink:href="84DB7ACE.png"  transform="matrix(1 0 0 1 719 380.507)">
		</image>
	</g>
	<g>
		<image overflow="visible" width="347" height="142" xlink:href="84DB7ACF.png"  transform="matrix(1 0 0 1 1228 225.507)">
		</image>
	</g>
	<g>
		<image overflow="visible" width="347" height="143" xlink:href="84DB7AC4.png"  transform="matrix(1 0 0 1 287 218.507)">
		</image>
	</g>
	<g>
		<image overflow="visible" width="347" height="142" xlink:href="33B8BDFA.png"  transform="matrix(1 0 0 1 241 500.507)">
		</image>
	</g>
	<g>
		<image overflow="visible" width="489" height="179" xlink:href="33B8BDFD.png"  transform="matrix(1 0 0 1 1270 434.507)">
		</image>
	</g>
	<g>
		<image overflow="visible" width="489" height="179" xlink:href="33B8BDFE.png"  transform="matrix(1 0 0 1 170 129.507)">
		</image>
	</g>
	<g opacity="0.5">
		<image overflow="visible" width="721" height="364" xlink:href="33B8BDFC.png"  transform="matrix(1 0 0 1 939 214.507)">
		</image>
	</g>
	<image overflow="visible" width="888" height="312" xlink:href="33B8BDFB.png"  transform="matrix(1 0 0 1 -290 126.507)">
	</image>
	<image overflow="visible" width="882" height="160" xlink:href="33B8BDE5.png"  transform="matrix(1 0 0 1 1036 338.507)">
	</image>
	<image overflow="visible" width="731" height="238" xlink:href="33B8BDE6.png"  transform="matrix(1 0 0 1 1453 118.507)">
	</image>
	
		<image overflow="visible" opacity="0.8" width="743" height="230" xlink:href="33B8BDE4.png"  transform="matrix(1 0 0 1 -285 298.507)">
	</image>
	<g>
		<image overflow="visible" width="582" height="187" xlink:href="33B8BDEA.png"  transform="matrix(1 0 0 1 993 111.507)">
		</image>
	</g>
	<image overflow="visible" width="766" height="195" xlink:href="33B8BDED.png"  transform="matrix(1 0 0 1 468 126.507)">
	</image>
</g>
<g id="contour_1_" display="none">
	<g id="contour" display="inline">
		<g>
			<image overflow="visible" width="843" height="379" xlink:href="33B8BE01.png"  transform="matrix(1 0 0 1 -13 289.507)">
			</image>
		</g>
		<g>
			<image overflow="visible" width="842" height="379" xlink:href="33B8BE03.png"  transform="matrix(1 0 0 1 1071 157.507)">
			</image>
		</g>
		<g>
			<image overflow="visible" width="275" height="71" xlink:href="33B8BE00.png"  transform="matrix(1 0 0 1 749 325.507)">
			</image>
		</g>
		<g opacity="0.8022">
			<image overflow="visible" width="649" height="292" xlink:href="33B8BE0F.png"  transform="matrix(1 0 0 1 969 159.507)">
			</image>
		</g>
		<path fill="#FFFFFF" d="M15.8,510.2c1.8,49.7,41.7,49.3,74.2,52.5c32.5,3.2,13,55.8,58.1,60.9c71-7.9,67,12.9,113,25.6
			c77,0.8,90-31.8,130-32.1s34,50.3,77.2,50.3c43.2,0,82.5-56.8,96.5-64.7c14-7.9,26.9,24.8,26.9,24.8
			c34.6-1.9,124.6,31.9,150.5,33.3c30.1-10.6,26.7-37.5,28.4-75.6c7.5-39.2,50-96.7,55.7-112c5.7-15.3,3.8-55.8-16.9-75.9
			c-18.5-14.5-4.2-20.9,16.6-18.7c20.8,2.2,25.9,10.5,40.3,17.1c21.6-1.7,30.2-9.4,53.8-13.9c9.9-8.5,41.1-5.4,73.6-3.3
			c30.6-2.8,29.8-11.9,46.3-10.3c31-8.8,25.1,38.9,46.7,46.9c72.5-6.2,79.5,23.2,103.6,22.1c0,0-1.1,46,37.8,53.8
			c78.9-14.2,105.1,30.2,121.9,26.9c65.7,13.7,77.3-39.1,141.9-32.7c16.9,0.3,17.2,45.9,67.4,50.5c19.8,3.8,43.2-26.7,75-62.5
			c43-27,100.6-7.5,142,0c41-1,47.3-29.8,79.4-65.1c64.4-38.1,57.2-82.3,57.2-82.3V-91H-8.8v486c22.2,12.5,34.8,28.5,42.5,57
			c-27.3,57.5-17.2,66.4-17.2,66.4"/>
	</g>
</g>
<g id="Calque_3" display="none">
</g>
</svg>
